<svg width="32" height="32" viewBox="0 0 32 32" fill="none" xmlns="http://www.w3.org/2000/svg">
  <!-- שמשיה צבעונית -->
  <circle cx="16" cy="16" r="14" fill="#FFD700" stroke="#FF8C00" stroke-width="2"/>
  <circle cx="16" cy="16" r="10" fill="#FFA500"/>
  <circle cx="16" cy="16" r="6" fill="#FF6347"/>
  <circle cx="16" cy="16" r="2" fill="#FF4500"/>
  
  <!-- קרני שמש -->
  <path d="M16 2 L18 6 L22 4 L20 8 L24 8 L22 12 L26 14 L22 16 L26 18 L22 20 L24 24 L20 24 L22 28 L18 26 L16 30 L14 26 L10 24 L6 24 L8 20 L4 18 L8 16 L4 14 L8 12 L6 8 L10 8 L8 4 L12 6 L16 2" fill="#FFD700"/>
</svg>

